<svg xmlns="http://www.w3.org/2000/svg" viewBox="0 0 100 100">
  <!-- Code Editor Window -->
  <rect x="15" y="15" width="70" height="70" rx="3" fill="#004953"/>
  <rect x="15" y="15" width="70" height="10" rx="3" fill="#003B3B"/>

  <!-- Window Controls -->
  <circle cx="20" cy="20" r="2" fill="#F44336"/>
  <circle cx="27" cy="20" r="2" fill="#FFC107"/>
  <circle cx="34" cy="20" r="2" fill="#4CAF50"/>

  <!-- Code Lines -->
  <rect x="25" y="35" width="45" height="3" fill="#003B3B"/>
  <rect x="25" y="43" width="35" height="3" fill="#003B3B"/>
  <rect x="30" y="51" width="40" height="3" fill="#003B3B"/>
  <rect x="30" y="59" width="25" height="3" fill="#003B3B"/>
  <rect x="25" y="67" width="30" height="3" fill="#003B3B"/>
  <rect x="25" y="75" width="40" height="3" fill="#003B3B"/>

  <!-- Brackets -->
  <path d="M22,30 L22,80 L25,80 L25,30 Z" fill="#003B3B"/>
  <path d="M65,35 L70,35 L70,40 Z" fill="#003B3B"/>
  <path d="M60,75 L65,75 L65,80 Z" fill="#003B3B"/>
</svg>
